HIERARCHY
ROOT Hips
{
  OFFSET 0.110648 95.9369 -0.386028
  CHANNELS 6 Xposition Yposition Zposition Zrotation Xrotation Yrotation
  JOINT Spine
  {
    OFFSET 7.53375 0.593559 1.145e-05
    CHANNELS 6 Xposition Yposition Zposition Zrotation Xrotation Yrotation
    JOINT Spine1
    {
      OFFSET 13.0694 -0.00893387 0
      CHANNELS 6 Xposition Yposition Zposition Zrotation Xrotation Yrotation
      JOINT Spine2
      {
        OFFSET 12.2366 0.00169269 0
        CHANNELS 6 Xposition Yposition Zposition Zrotation Xrotation Yrotation
        JOINT LeftShoulder
        {
          OFFSET 17.6513 -6.97471 7.17943
          CHANNELS 6 Xposition Yposition Zposition Zrotation Xrotation Yrotation
          JOINT LeftArm
          {
            OFFSET 13.2157 0 -0.0117278
            CHANNELS 6 Xposition Yposition Zposition Zrotation Xrotation Yrotation
            JOINT LeftForeArm
            {
              OFFSET 29.1075 0 -1.32486e-05
              CHANNELS 6 Xposition Yposition Zposition Zrotation Xrotation Yrotation
              JOINT LeftHand
              {
                OFFSET 27.7712 0.000502799 0.00134653
                CHANNELS 6 Xposition Yposition Zposition Zrotation Xrotation Yrotation
                End Site
                {
                  OFFSET 0 0 0
                }
              }
            }
          }
        }
        JOINT Neck
        {
          OFFSET 22.546 -3.80889 -0.114521
          CHANNELS 6 Xposition Yposition Zposition Zrotation Xrotation Yrotation
          JOINT Head
          {
            OFFSET 12.1556 3.6551e-05 7.61851e-05
            CHANNELS 6 Xposition Yposition Zposition Zrotation Xrotation Yrotation
            End Site
            {
              OFFSET 0 0 0
            }
          }
        }
        JOINT RightShoulder
        {
          OFFSET 17.6513 -6.9749 -7.40851
          CHANNELS 6 Xposition Yposition Zposition Zrotation Xrotation Yrotation
          JOINT RightArm
          {
            OFFSET 13.2238 0.00312747 0.0039588
            CHANNELS 6 Xposition Yposition Zposition Zrotation Xrotation Yrotation
            JOINT RightForeArm
            {
              OFFSET 29.1068 -0.00498229 -0.0273782
              CHANNELS 6 Xposition Yposition Zposition Zrotation Xrotation Yrotation
              JOINT RightHand
              {
                OFFSET 27.7729 -0.00472006 0.000778947
                CHANNELS 6 Xposition Yposition Zposition Zrotation Xrotation Yrotation
                End Site
                {
                  OFFSET 0 0 0
                }
              }
            }
          }
        }
      }
    }
  }
  JOINT LeftUpLeg
  {
    OFFSET -1.6965 -0.234716 9.46757
    CHANNELS 6 Xposition Yposition Zposition Zrotation Xrotation Yrotation
    JOINT LeftLeg
    {
      OFFSET 40.0569 -0.000396311 -0.000206028
      CHANNELS 6 Xposition Yposition Zposition Zrotation Xrotation Yrotation
      JOINT LeftFoot
      {
        OFFSET 48.9977 0.000247179 0
        CHANNELS 6 Xposition Yposition Zposition Zrotation Xrotation Yrotation
        JOINT LeftToe
        {
          OFFSET 11.2727 22.9777 -3.59808e-05
          CHANNELS 6 Xposition Yposition Zposition Zrotation Xrotation Yrotation
          End Site
          {
            OFFSET 0 0 0
          }
        }
      }
    }
  }
  JOINT RightUpLeg
  {
    OFFSET -1.69651 -0.23477 -9.69672
    CHANNELS 6 Xposition Yposition Zposition Zrotation Xrotation Yrotation
    JOINT RightLeg
    {
      OFFSET 40.057 0.000411637 0
      CHANNELS 6 Xposition Yposition Zposition Zrotation Xrotation Yrotation
      JOINT RightFoot
      {
        OFFSET 48.9978 0.00177447 -3.04411e-05
        CHANNELS 6 Xposition Yposition Zposition Zrotation Xrotation Yrotation
        JOINT RightToe
        {
          OFFSET 11.2726 22.9778 0.000332871
          CHANNELS 6 Xposition Yposition Zposition Zrotation Xrotation Yrotation
          End Site
          {
            OFFSET 0 0 0
          }
        }
      }
    }
  }
}
MOTION
Frames:	5
Frame Time:	0.0333333
0.11065 95.9369 99.614 -66.366 80.0336 155.86 7.53374 0.593558 1.01944e-05 7.91293 -4.58399 -0.0257365 13.0694 -0.00893353 -7.86439e-06 8.30248 -9.12121 -0.664098 12.2366 0.00169269 6.4926e-06 0.0881613 0.000824499 5.1537e-05 17.6513 -6.97472 7.17943 -172.032 9.71552 -90.0006 13.2157 -2.69194e-06 -0.0117222 -0.71743 -27.7438 60.9792 29.1075 -1.30255e-06 -2.93942e-06 -36.9305 15.6447 11.4527 27.7712 0.000504558 0.00134612 172.047 -77.2362 177.722 22.546 -3.8089 -0.114519 25.2552 5.64073 0.364969 12.1557 -3.33487e-06 7.57949e-05 -31.2653 -0.490506 -2.01454 17.6513 -6.9749 -7.40851 -172.032 5.19109 90.0005 13.2238 0.00312703 0.00395055 25.7559 -11.2438 -67.9845 29.1068 0.000112064 1.66064e-06 -31.8116 -15.9221 -9.65737 27.7729 -0.00473726 0.000785401 10.8922 68.1707 -25.2752 -1.69651 -0.234717 9.46756 24.9815 2.83856 -171.462 40.0568 5.57553e-05 5.13885e-07 -21.5096 0.000403565 -0.00179437 48.9977 0.000237507 4.60551e-07 9.38981 2.60869 -8.05933 11.2727 22.9777 -3.54852e-05 90 -0.000161646 0.00016139 -1.6965 -0.234768 -9.6967 -29.995 -17.9523 173.429 40.0571 0.000392434 -1.39791e-06 -16.4052 5.33743e-05 -0.000554902 48.9978 0.00177895 -2.21831e-05 0.48829 0.359608 -3.85145 11.2726 22.9778 0.00033201 89.9999 0.00160392 0.000189021 
-0.351418 95.5429 105.864 -63.2619 80.2656 152.316 7.53374 0.593558 1.01944e-05 8.31866 -4.38677 0.280871 13.0694 -0.00893353 -7.86439e-06 9.14292 -8.76725 0.00692512 12.2366 0.00169269 6.4926e-06 0.0881613 0.000824499 5.1537e-05 17.6513 -6.97472 7.17943 -172.006 9.25409 -90.4264 13.2157 -2.69194e-06 -0.0117222 -0.39367 -27.3303 61.0038 29.1075 -1.30255e-06 -2.93942e-06 -40.3552 15.2436 12.5867 27.7712 0.000504558 0.00134612 162.133 -73.6354 168.626 22.546 -3.8089 -0.114519 24.4343 5.40579 -0.0488522 12.1557 -3.33487e-06 7.57949e-05 -31.4806 -0.812773 -2.05712 17.6513 -6.9749 -7.40851 -172.083 5.29204 90.494 13.2238 0.00312703 0.00395055 25.614 -11.5818 -69.4227 29.1068 0.000112064 1.66064e-06 -29.2739 -16.0594 -8.81535 27.7729 -0.00473726 0.000785401 10.1754 68.1495 -19.2312 -1.69651 -0.234717 9.46756 27.2523 3.93123 -170.178 40.0568 5.57553e-05 5.13885e-07 -22.9094 0.000453435 -0.00180508 48.9977 0.000237507 4.60551e-07 5.37399 3.59588 -8.55893 11.2727 22.9777 -3.54852e-05 90 -0.000161859 0.000164997 -1.6965 -0.234768 -9.6967 -25.9264 -18.1256 174.684 40.0571 0.000392434 -1.39791e-06 -16.951 0.000220912 -0.00111867 48.9978 0.00177895 -2.21831e-05 0.890834 0.451908 -3.34911 11.2726 22.9778 0.00033201 89.9999 0.00161291 0.000198926 
-0.863831 95.1823 112.114 -55.8381 80.7532 144.504 7.53374 0.593558 1.01944e-05 9.06541 -3.97935 0.607646 13.0694 -0.00893353 -7.86439e-06 10.6663 -7.9885 0.76345 12.2366 0.00169269 6.4926e-06 0.0881613 0.000824499 5.1537e-05 17.6513 -6.97472 7.17943 -171.994 8.16163 -90.9838 13.2157 -2.69194e-06 -0.0117222 0.253898 -26.6441 61.509 29.1075 -1.30255e-06 -2.93942e-06 -43.0886 14.7319 13.3729 27.7712 0.000504558 0.00134612 153.847 -71.3955 160.633 22.546 -3.8089 -0.114519 23.2872 5.0661 -0.659812 12.1557 -3.33487e-06 7.57949e-05 -31.892 -1.18078 -2.09081 17.6513 -6.9749 -7.40851 -172.12 4.69427 91.017 13.2238 0.00312703 0.00395055 24.962 -11.1422 -71.1023 29.1068 0.000112064 1.66064e-06 -27.8284 -16.2283 -8.39206 27.7729 -0.00473726 0.000785401 9.00362 68.2247 -11.9184 -1.69651 -0.234717 9.46756 29.7571 5.62351 -169.195 40.0568 5.57553e-05 5.13885e-07 -24.6098 0.000492694 -0.00190455 48.9977 0.000237507 4.60551e-07 0.798357 4.13788 -8.83982 11.2727 22.9777 -3.54852e-05 90 -0.000162039 0.000164463 -1.6965 -0.234768 -9.6967 -27.7987 -17.0401 174.253 40.0571 0.000392434 -1.39791e-06 -27.5845 0.000626417 -0.00209967 48.9978 0.00177895 -2.21831e-05 0.897497 0.772696 -2.76708 11.2726 22.9778 0.00033201 89.9999 0.0016149 0.000199156 
-1.37744 95.1658 118.364 -47.2418 81.2694 135.561 7.53374 0.593558 1.01944e-05 9.55272 -3.44517 0.867775 13.0694 -0.00893353 -7.86439e-06 11.6567 -6.9463 1.3716 12.2366 0.00169269 6.4926e-06 0.0881613 0.000824499 5.1537e-05 17.6513 -6.97472 7.17943 -172.013 6.87547 -91.2606 13.2157 -2.69194e-06 -0.0117222 1.18983 -25.7087 62.5188 29.1075 -1.30255e-06 -2.93942e-06 -43.8956 14.4783 13.5174 27.7712 0.000504558 0.00134612 141.773 -71.9633 148.665 22.546 -3.8089 -0.114519 23.0779 4.53443 -1.23134 12.1557 -3.33487e-06 7.57949e-05 -32.1366 -1.52168 -2.0798 17.6513 -6.9749 -7.40851 -172.117 3.71973 91.2589 13.2238 0.00312703 0.00395055 23.9407 -10.0251 -72.856 29.1068 0.000112064 1.66064e-06 -27.0763 -16.2179 -8.12527 27.7729 -0.00473726 0.000785401 7.17518 68.3015 -3.83457 -1.69651 -0.234717 9.46756 30.0909 7.11284 -168.221 40.0568 5.57553e-05 5.13885e-07 -29.5133 0.000677262 -0.0020555 48.9977 0.000237507 4.60551e-07 -4.82106 5.04505 -8.91215 11.2727 22.9777 -3.54852e-05 90 -0.000165858 0.000165331 -1.6965 -0.234768 -9.6967 -26.9932 -15.976 174.707 40.0571 0.000392434 -1.39791e-06 -33.8432 0.00077468 -0.00226106 48.9978 0.00177895 -2.21831e-05 2.22726 0.847322 -2.1815 11.2726 22.9778 0.00033201 89.9999 0.00160844 0.000198005 
-1.90843 96.0375 124.614 -37.5632 81.9929 125.609 7.53374 0.593558 1.01944e-05 9.6452 -2.70751 1.02846 13.0694 -0.00893353 -7.86439e-06 11.8409 -5.4932 1.77179 12.2366 0.00169269 6.4926e-06 0.0881613 0.000824499 5.1537e-05 17.6513 -6.97472 7.17943 -172.057 5.5826 -91.097 13.2157 -2.69194e-06 -0.0117222 2.57018 -24.2159 63.882 29.1075 -1.30255e-06 -2.93942e-06 -43.7112 14.4295 13.3912 27.7712 0.000504558 0.00134612 124.077 -73.9906 131.358 22.546 -3.8089 -0.114519 24.3016 3.65384 -1.63821 12.1557 -3.33487e-06 7.57949e-05 -31.8561 -1.79914 -1.9707 17.6513 -6.9749 -7.40851 -172.08 2.50592 91.1309 13.2238 0.00312703 0.00395055 22.6399 -8.28086 -74.572 29.1068 0.000112064 1.66064e-06 -26.8224 -16.1703 -8.01579 27.7729 -0.00473726 0.000785401 5.53294 68.3457 3.07451 -1.69651 -0.234717 9.46756 26.1031 7.93707 -166.852 40.0568 5.57553e-05 5.13885e-07 -40.9605 0.00129917 -0.00285714 48.9977 0.000237507 4.60551e-07 -15.171 7.09077 -8.09665 11.2727 22.9777 -3.54852e-05 90 -0.00016679 0.000164154 -1.6965 -0.234768 -9.6967 -23.2859 -14.8476 176.048 40.0571 0.000392434 -1.39791e-06 -35.5319 0.000602684 -0.00200418 48.9978 0.00177895 -2.21831e-05 6.42998 0.722752 -1.67227 11.2726 22.9778 0.00033201 89.9999 0.00160891 0.00019911 
